<svg width="80" height="80" viewBox="0 0 80 80" fill="none" xmlns="http://www.w3.org/2000/svg">
  <path d="M40 10C45.5228 10 50 14.4772 50 20C50 25.5228 45.5228 30 40 30C34.4772 30 30 25.5228 30 20C30 14.4772 34.4772 10 40 10Z" fill="#E5B94E"/>
  <path d="M65 35H15C12.2386 35 10 37.2386 10 40V60C10 62.7614 12.2386 65 15 65H65C67.7614 65 70 62.7614 70 60V40C70 37.2386 67.7614 35 65 35Z" fill="#E5B94E"/>
  <path d="M40 25C42.7614 25 45 27.2386 45 30V35H35V30C35 27.2386 37.2386 25 40 25Z" fill="#E5B94E"/>
</svg>
